<svg xmlns="http://www.w3.org/2000/svg" xmlns:xlink="http://www.w3.org/1999/xlink" width="40" height="40" version="1.2" viewBox="0 0 30 30"><defs><clipPath id="clip1"><path d="M 2.53125 0.582031 L 26.949219 0.582031 L 26.949219 27.882812 L 2.53125 27.882812 Z M 2.53125 0.582031"/></clipPath></defs><g id="surface1"><g clip-path="url(#clip1)" clip-rule="nonzero"><path style="stroke:none;fill-rule:nonzero;fill:#0277bd;fill-opacity:1" d="M 26.945312 0.582031 L 2.535156 0.582031 L 4.6875 25.007812 L 14.738281 27.882812 L 24.792969 25.007812 Z M 26.945312 0.582031"/></g><path style="stroke:none;fill-rule:nonzero;fill:#039be5;fill-opacity:1" d="M 14.738281 2.738281 L 14.738281 25.65625 L 22.78125 23.355469 L 24.578125 2.738281 Z M 14.738281 2.738281"/><path style="stroke:none;fill-rule:nonzero;fill:#fff;fill-opacity:1" d="M 21.273438 6.332031 L 14.738281 6.332031 L 14.738281 9.203125 L 18.257812 9.203125 L 18.042969 12.078125 L 14.738281 12.078125 L 14.738281 14.953125 L 17.898438 14.953125 L 17.683594 18.183594 L 14.738281 19.191406 L 14.738281 22.207031 L 20.414062 20.339844 L 20.914062 12.078125 Z M 21.273438 6.332031"/><path style="stroke:none;fill-rule:nonzero;fill:#eee;fill-opacity:1" d="M 14.738281 6.332031 L 14.738281 9.203125 L 8.347656 9.203125 L 8.132812 6.332031 Z M 11.4375 12.078125 L 11.582031 14.953125 L 14.738281 14.953125 L 14.738281 12.078125 Z M 11.722656 16.390625 L 8.851562 16.390625 L 9.066406 20.339844 L 14.738281 22.207031 L 14.738281 19.191406 L 11.796875 18.183594 Z M 11.722656 16.390625"/></g></svg>