<?xml version="1.0" encoding="UTF-8"?>
<svg xmlns="http://www.w3.org/2000/svg" xmlns:xlink="http://www.w3.org/1999/xlink" width="30pt" height="30.000001pt" viewBox="0 0 30 30.000001" version="1.2">
<defs>
<clipPath id="clip1">
  <path d="M 0.484375 0 L 29.515625 0 L 29.515625 29 L 0.484375 29 Z M 0.484375 0 "/>
</clipPath>
</defs>
<g id="surface1">
<g clip-path="url(#clip1)" clip-rule="nonzero">
<path style=" stroke:none;fill-rule:nonzero;fill:rgb(87.059021%,29.798889%,21.179199%);fill-opacity:1;" d="M 28.796875 13.238281 L 16.277344 0.71875 C 15.558594 0 14.386719 0 13.664062 0.71875 L 11.066406 3.320312 L 14.363281 6.617188 C 15.128906 6.359375 16.007812 6.53125 16.621094 7.144531 C 17.234375 7.757812 17.40625 8.644531 17.140625 9.414062 L 20.320312 12.59375 C 21.085938 12.328125 21.976562 12.496094 22.589844 13.113281 C 23.449219 13.972656 23.449219 15.363281 22.589844 16.21875 C 21.730469 17.078125 20.339844 17.078125 19.480469 16.21875 C 18.835938 15.574219 18.675781 14.625 19.003906 13.832031 L 16.039062 10.867188 L 16.039062 18.667969 C 16.246094 18.769531 16.445312 18.90625 16.621094 19.082031 C 17.476562 19.941406 17.476562 21.332031 16.621094 22.191406 C 15.761719 23.046875 14.371094 23.046875 13.511719 22.191406 C 12.65625 21.332031 12.65625 19.941406 13.511719 19.082031 C 13.722656 18.871094 13.96875 18.710938 14.230469 18.601562 L 14.230469 10.730469 C 13.96875 10.621094 13.726562 10.464844 13.511719 10.25 C 12.863281 9.601562 12.707031 8.648438 13.039062 7.847656 L 9.789062 4.597656 L 1.203125 13.179688 C 0.484375 13.902344 0.484375 15.070312 1.203125 15.792969 L 13.722656 28.3125 C 14.445312 29.03125 15.613281 29.03125 16.335938 28.3125 L 28.796875 15.851562 C 29.515625 15.128906 29.515625 13.960938 28.796875 13.238281 "/>
</g>
</g>
</svg>
