<svg xmlns="http://www.w3.org/2000/svg" xmlns:xlink="http://www.w3.org/1999/xlink" width="40" height="40" version="1.2" viewBox="0 0 30 30"><defs><clipPath id="clip1"><path d="M 1 1.171875 L 29 1.171875 L 29 28.027344 L 1 28.027344 Z M 1 1.171875"/></clipPath></defs><g id="surface1"><g clip-path="url(#clip1)" clip-rule="nonzero"><path style="stroke:none;fill-rule:nonzero;fill:#000;fill-opacity:1" d="M 19.023438 28.089844 C 18.976562 28.101562 18.933594 28.109375 18.886719 28.109375 L 18.785156 28.015625 L 18.785156 27.207031 C 18.785156 26.457031 18.796875 25.324219 18.796875 24.023438 C 18.8125 23.246094 18.65625 22.503906 18.332031 21.804688 C 21.136719 21.28125 24.277344 19.726562 24.277344 14.15625 C 24.300781 12.636719 23.84375 11.289062 22.90625 10.113281 C 23.257812 8.769531 23.167969 7.457031 22.644531 6.171875 C 22.574219 5.988281 22.445312 5.863281 22.261719 5.804688 C 22.097656 5.757812 21.929688 5.734375 21.757812 5.738281 C 20.394531 5.863281 19.171875 6.355469 18.089844 7.210938 C 16.96875 6.925781 15.832031 6.777344 14.675781 6.773438 C 13.519531 6.773438 12.382812 6.921875 11.261719 7.210938 C 10.175781 6.351562 8.953125 5.859375 7.589844 5.738281 C 7.417969 5.730469 7.25 5.753906 7.085938 5.800781 C 6.898438 5.863281 6.773438 5.984375 6.703125 6.171875 C 6.175781 7.453125 6.089844 8.769531 6.445312 10.113281 C 5.507812 11.289062 5.050781 12.636719 5.074219 14.152344 C 5.074219 19.722656 8.210938 21.285156 11.007812 21.8125 C 10.855469 22.132812 10.738281 22.472656 10.667969 22.824219 C 10.328125 22.949219 9.980469 23.015625 9.621094 23.019531 C 9.109375 23.03125 8.65625 22.863281 8.265625 22.523438 C 8.226562 22.472656 8.183594 22.429688 8.132812 22.394531 C 8.046875 22.300781 7.96875 22.199219 7.894531 22.097656 L 7.871094 22.066406 C 7.863281 22.054688 7.855469 22.042969 7.847656 22.03125 L 7.746094 21.898438 C 7.710938 21.855469 7.679688 21.8125 7.652344 21.769531 C 7.367188 21.261719 6.988281 20.847656 6.511719 20.527344 C 6.035156 20.203125 5.515625 20.007812 4.949219 19.941406 C 4.296875 19.941406 3.863281 20.179688 3.734375 20.609375 C 3.53125 21.285156 4.242188 21.789062 4.585938 22.023438 C 5.199219 22.457031 5.617188 23.042969 5.828125 23.777344 C 5.980469 24.179688 6.1875 24.542969 6.453125 24.875 C 6.71875 25.210938 7.027344 25.492188 7.378906 25.722656 C 7.730469 25.953125 8.109375 26.121094 8.511719 26.226562 C 8.917969 26.335938 9.328125 26.375 9.746094 26.34375 C 10.015625 26.34375 10.289062 26.324219 10.554688 26.289062 L 10.570312 28.019531 L 10.460938 28.109375 C 10.425781 28.109375 10.378906 28.109375 10.417969 28.121094 C 9.917969 27.949219 9.429688 27.746094 8.949219 27.515625 C 8.472656 27.285156 8.011719 27.027344 7.5625 26.742188 C 7.113281 26.453125 6.683594 26.140625 6.273438 25.800781 C 5.859375 25.464844 5.46875 25.101562 5.097656 24.714844 C 4.726562 24.328125 4.378906 23.921875 4.054688 23.496094 C 3.730469 23.066406 3.433594 22.621094 3.160156 22.15625 C 2.886719 21.695312 2.640625 21.214844 2.421875 20.722656 C 2.203125 20.226562 2.015625 19.722656 1.851562 19.207031 C 1.691406 18.691406 1.5625 18.164062 1.460938 17.632812 C 1.359375 17.101562 1.289062 16.5625 1.25 16.023438 C 1.210938 15.484375 1.203125 14.941406 1.222656 14.398438 C 1.246094 13.859375 1.300781 13.320312 1.382812 12.785156 C 1.46875 12.25 1.582031 11.71875 1.726562 11.199219 C 1.871094 10.675781 2.042969 10.164062 2.246094 9.664062 C 2.449219 9.164062 2.679688 8.675781 2.9375 8.203125 C 3.195312 7.730469 3.480469 7.277344 3.792969 6.835938 C 4.101562 6.398438 4.4375 5.980469 4.796875 5.582031 C 5.152344 5.183594 5.535156 4.808594 5.933594 4.457031 C 6.335938 4.105469 6.753906 3.777344 7.195312 3.476562 C 7.632812 3.175781 8.085938 2.902344 8.558594 2.65625 C 9.027344 2.410156 9.507812 2.191406 10.003906 2.003906 C 10.5 1.8125 11.003906 1.65625 11.515625 1.527344 C 12.027344 1.402344 12.546875 1.304688 13.070312 1.238281 C 13.59375 1.175781 14.121094 1.140625 14.648438 1.140625 C 15.175781 1.136719 15.699219 1.167969 16.222656 1.230469 C 16.75 1.292969 17.265625 1.386719 17.78125 1.511719 C 18.292969 1.636719 18.796875 1.789062 19.292969 1.976562 C 19.789062 2.160156 20.273438 2.375 20.746094 2.621094 C 21.214844 2.863281 21.671875 3.136719 22.113281 3.433594 C 22.550781 3.734375 22.972656 4.058594 23.375 4.410156 C 23.78125 4.757812 24.160156 5.132812 24.523438 5.527344 C 24.882812 5.925781 25.21875 6.339844 25.53125 6.777344 C 25.84375 7.214844 26.132812 7.667969 26.390625 8.140625 C 26.652344 8.609375 26.886719 9.097656 27.089844 9.59375 C 27.296875 10.09375 27.472656 10.605469 27.621094 11.125 C 27.765625 11.648438 27.882812 12.175781 27.972656 12.710938 C 28.058594 13.246094 28.113281 13.78125 28.140625 14.324219 C 28.164062 14.867188 28.160156 15.40625 28.121094 15.949219 C 28.085938 16.488281 28.019531 17.027344 27.917969 17.558594 C 27.820312 18.09375 27.695312 18.617188 27.535156 19.132812 C 27.378906 19.652344 27.191406 20.160156 26.972656 20.652344 C 26.757812 21.148438 26.515625 21.628906 26.246094 22.09375 C 25.972656 22.558594 25.675781 23.007812 25.355469 23.4375 C 25.035156 23.867188 24.6875 24.273438 24.320312 24.664062 C 23.949219 25.050781 23.5625 25.414062 23.152344 25.753906 C 22.742188 26.097656 22.3125 26.410156 21.867188 26.699219 C 21.417969 26.988281 20.957031 27.25 20.480469 27.484375 C 20.003906 27.71875 19.519531 27.921875 19.019531 28.097656 Z M 19.023438 28.089844"/></g></g></svg>