<?xml version="1.0" encoding="UTF-8"?>
<svg xmlns="http://www.w3.org/2000/svg" xmlns:xlink="http://www.w3.org/1999/xlink" width="30pt" height="30.000001pt" viewBox="0 0 30 30.000001" version="1.2">
<defs>
<clipPath id="clip1">
  <path d="M 1.933594 0 L 28.066406 0 L 28.066406 28.917969 L 1.933594 28.917969 Z M 1.933594 0 "/>
</clipPath>
</defs>
<g id="surface1">
<g clip-path="url(#clip1)" clip-rule="nonzero">
<path style=" stroke:none;fill-rule:nonzero;fill:rgb(89.408875%,30.198669%,14.898682%);fill-opacity:1;" d="M 4.308594 25.882812 L 1.929688 -0.699219 L 28.070312 -0.699219 L 25.691406 25.878906 L 14.984375 28.835938 Z M 4.308594 25.882812 "/>
</g>
<path style=" stroke:none;fill-rule:nonzero;fill:rgb(94.509888%,39.608765%,16.079712%);fill-opacity:1;" d="M 23.652344 24.1875 L 25.6875 1.472656 L 15 1.472656 L 15 26.578125 Z M 23.652344 24.1875 "/>
<path style=" stroke:none;fill-rule:nonzero;fill:rgb(92.158508%,92.158508%,92.158508%);fill-opacity:1;" d="M 14.988281 4.734375 L 6.792969 4.734375 L 7.675781 14.59375 L 15 14.59375 L 15 11.332031 L 10.667969 11.332031 L 10.371094 7.996094 L 15 7.996094 L 15 4.734375 Z M 15 19.789062 L 14.984375 19.792969 L 11.339844 18.8125 L 11.109375 16.214844 L 7.820312 16.214844 L 8.28125 21.332031 L 14.984375 23.179688 L 15 23.175781 Z M 15 19.789062 "/>
<path style=" stroke:none;fill-rule:nonzero;fill:rgb(100%,100%,100%);fill-opacity:1;" d="M 14.988281 14.59375 L 19.019531 14.59375 L 18.648438 18.820312 L 15 19.800781 L 15 23.195312 L 21.707031 21.34375 L 22.605469 11.332031 L 15 11.332031 Z M 23.109375 5.609375 L 23.1875 4.734375 L 14.988281 4.734375 L 14.988281 7.992188 L 22.890625 7.992188 L 22.957031 7.261719 Z M 23.109375 5.609375 "/>
</g>
</svg>
