<svg xmlns="http://www.w3.org/2000/svg" xmlns:xlink="http://www.w3.org/1999/xlink" width="40" height="40" version="1.2" viewBox="0 0 30 30"><defs><clipPath id="clip1"><path d="M 0.484375 0 L 29.515625 0 L 29.515625 29.03125 L 0.484375 29.03125 Z M 0.484375 0"/></clipPath><clipPath id="clip2"><path d="M 1.027344 0.542969 L 29.335938 0.542969 L 29.335938 28.851562 L 1.027344 28.851562 Z M 1.027344 0.542969"/></clipPath></defs><g id="surface1"><g clip-path="url(#clip1)" clip-rule="nonzero"><path style="stroke:none;fill-rule:nonzero;fill:#fff;fill-opacity:1" d="M 0.484375 0 L 29.515625 0 L 29.515625 36.289062 L 0.484375 36.289062 Z M 0.484375 0"/><path style="stroke:none;fill-rule:nonzero;fill:#fff;fill-opacity:1" d="M 0.484375 0 L 29.515625 0 L 29.515625 29.03125 L 0.484375 29.03125 Z M 0.484375 0"/><path style="stroke:none;fill-rule:nonzero;fill:#fff;fill-opacity:1" d="M 0.484375 0 L 29.515625 0 L 29.515625 29.03125 L 0.484375 29.03125 Z M 0.484375 0"/></g><g clip-path="url(#clip2)" clip-rule="nonzero"><path style="stroke:none;fill-rule:nonzero;fill:#ffd600;fill-opacity:1" d="M 1.027344 0.542969 L 29.703125 0.542969 L 29.703125 29.21875 L 1.027344 29.21875 Z M 1.027344 0.542969"/></g><path style="stroke:none;fill-rule:nonzero;fill:#000001;fill-opacity:1" d="M 19.777344 22.007812 C 20.328125 22.902344 20.925781 23.761719 22.195312 23.761719 C 23.261719 23.761719 23.820312 23.230469 23.820312 22.5 C 23.820312 21.621094 23.242188 21.308594 22.070312 20.800781 L 21.425781 20.527344 C 19.570312 19.738281 18.335938 18.753906 18.335938 16.667969 C 18.335938 14.75 19.808594 13.289062 22.105469 13.289062 C 23.738281 13.289062 24.914062 13.855469 25.761719 15.339844 L 23.757812 16.617188 C 23.316406 15.832031 22.84375 15.523438 22.105469 15.523438 C 21.351562 15.523438 20.875 15.996094 20.875 16.617188 C 20.875 17.386719 21.351562 17.695312 22.453125 18.171875 L 23.097656 18.445312 C 25.285156 19.378906 26.515625 20.328125 26.515625 22.464844 C 26.515625 24.769531 24.695312 26.03125 22.253906 26.03125 C 19.867188 26.03125 18.511719 24.832031 17.753906 23.351562 Z M 10.546875 22.074219 C 10.949219 22.792969 11.5625 23.351562 12.445312 23.351562 C 13.289062 23.351562 13.773438 23.015625 13.773438 21.722656 L 13.773438 13.289062 L 16.425781 13.289062 L 16.425781 22.128906 C 16.425781 24.8125 14.871094 26.03125 12.601562 26.03125 C 10.546875 26.03125 9.066406 24.640625 8.460938 23.351562 Z M 10.546875 22.074219"/></g></svg>