<?xml version="1.0" encoding="UTF-8"?>
<svg xmlns="http://www.w3.org/2000/svg" xmlns:xlink="http://www.w3.org/1999/xlink" width="30pt" height="30.000001pt" viewBox="0 0 30 30.000001" version="1.2">
<defs>
<clipPath id="clip1">
  <path d="M 0.484375 0.382812 L 22 0.382812 L 22 22 L 0.484375 22 Z M 0.484375 0.382812 "/>
</clipPath>
<clipPath id="clip2">
  <path d="M 9 7 L 29.515625 7 L 29.515625 28.351562 L 9 28.351562 Z M 9 7 "/>
</clipPath>
</defs>
<g id="surface1">
<g clip-path="url(#clip1)" clip-rule="nonzero">
<path style=" stroke:none;fill-rule:nonzero;fill:rgb(0.779724%,46.669006%,74.119568%);fill-opacity:1;" d="M 15.917969 0.382812 C 14.71875 0.382812 13.886719 0.484375 12.882812 0.652344 C 9.914062 1.144531 9.375 2.179688 9.375 4.089844 L 9.375 7.003906 L 16.316406 7.003906 L 16.316406 8.476562 L 5.753906 8.476562 C 3.71875 8.476562 1.941406 9.390625 1.375 11.582031 C 0.738281 14.097656 0.710938 15.671875 1.375 18.300781 C 1.882812 20.257812 2.996094 21.726562 5.03125 21.726562 L 7.832031 21.726562 L 7.832031 17.96875 C 7.832031 15.785156 9.902344 13.628906 12.277344 13.628906 L 17.859375 13.628906 C 19.804688 13.628906 21.714844 12.257812 21.714844 10.410156 L 21.714844 4.089844 C 21.714844 2.292969 20.359375 0.949219 18.460938 0.648438 C 18.507812 0.644531 17.109375 0.375 15.917969 0.382812 Z M 12.074219 3.324219 C 12.707031 3.324219 13.230469 3.824219 13.230469 4.429688 C 13.230469 5.042969 12.707031 5.535156 12.074219 5.535156 C 11.429688 5.535156 10.917969 5.042969 10.917969 4.429688 C 10.917969 3.824219 11.429688 3.324219 12.074219 3.324219 Z M 12.074219 3.324219 "/>
</g>
<g clip-path="url(#clip2)" clip-rule="nonzero">
<path style=" stroke:none;fill-rule:nonzero;fill:rgb(100%,75.689697%,2.749634%);fill-opacity:1;" d="M 15.171875 28.351562 C 16.371094 28.347656 17.203125 28.246094 18.207031 28.082031 C 21.175781 27.589844 21.714844 26.550781 21.714844 24.644531 L 21.714844 21.726562 L 14.773438 21.726562 L 14.773438 20.253906 L 25.335938 20.253906 C 27.371094 20.253906 29.148438 19.339844 29.714844 17.148438 C 30.351562 14.632812 30.378906 13.058594 29.714844 10.433594 C 29.207031 8.472656 28.09375 7.003906 26.058594 7.003906 L 23.257812 7.003906 L 23.257812 10.761719 C 23.257812 12.945312 21.1875 15.101562 18.8125 15.101562 L 13.230469 15.101562 C 11.285156 15.101562 9.375 16.472656 9.375 18.324219 L 9.375 24.644531 C 9.375 26.4375 10.730469 27.78125 12.625 28.082031 C 12.578125 28.085938 13.980469 28.355469 15.171875 28.351562 Z M 19.015625 25.40625 C 18.382812 25.40625 17.859375 24.910156 17.859375 24.300781 C 17.859375 23.6875 18.382812 23.199219 19.015625 23.199219 C 19.660156 23.199219 20.171875 23.6875 20.171875 24.300781 C 20.171875 24.90625 19.660156 25.40625 19.015625 25.40625 Z M 19.015625 25.40625 "/>
</g>
</g>
</svg>
