<svg xmlns="http://www.w3.org/2000/svg" xmlns:xlink="http://www.w3.org/1999/xlink" width="40" height="40" version="1.2" viewBox="0 0 30 30"><defs><clipPath id="clip1"><path d="M 21 0 L 28.789062 0 L 28.789062 29 L 21 29 Z M 21 0"/></clipPath><clipPath id="clip2"><path d="M 0.484375 0 L 22 0 L 22 22 L 0.484375 22 Z M 0.484375 0"/></clipPath><clipPath id="clip3"><path d="M 0.484375 7 L 22 7 L 22 29 L 0.484375 29 Z M 0.484375 7"/></clipPath></defs><g id="surface1"><g clip-path="url(#clip1)" clip-rule="nonzero"><path style="stroke:none;fill-rule:nonzero;fill:#29b6f6;fill-opacity:1" d="M 28.789062 5.441406 L 28.789062 23.59375 C 28.789062 24.488281 28.234375 25.28125 27.394531 25.578125 L 21.1875 28.492188 L 21.75 20.851562 L 21.75 8.179688 L 21.1875 0.539062 L 27.394531 3.453125 C 28.234375 3.75 28.789062 4.546875 28.789062 5.441406 Z M 28.789062 5.441406"/></g><g clip-path="url(#clip2)" clip-rule="nonzero"><path style="stroke:none;fill-rule:nonzero;fill:#0277bd;fill-opacity:1" d="M 4.144531 21.484375 L 21.75 8.179688 L 21.75 1.386719 C 21.75 0.542969 20.707031 0.148438 20.148438 0.78125 L 1.089844 18.207031 C 0.453125 18.789062 0.488281 19.800781 1.164062 20.339844 C 1.164062 20.339844 2.09375 21.207031 2.433594 21.449219 C 2.953125 21.816406 3.632812 21.859375 4.144531 21.484375 Z M 4.144531 21.484375"/></g><g clip-path="url(#clip3)" clip-rule="nonzero"><path style="stroke:none;fill-rule:nonzero;fill:#0288d1;fill-opacity:1" d="M 4.144531 7.546875 L 21.75 20.851562 L 21.75 27.644531 C 21.75 28.488281 20.707031 28.882812 20.148438 28.25 L 1.089844 10.828125 C 0.453125 10.242188 0.488281 9.230469 1.164062 8.691406 C 1.164062 8.691406 2.09375 7.824219 2.433594 7.582031 C 2.953125 7.214844 3.632812 7.171875 4.144531 7.546875 Z M 4.144531 7.546875"/></g></g></svg>